<svg width="659" height="698" viewBox="0 0 659 698" fill="none" xmlns="http://www.w3.org/2000/svg">
<path d="M618 129L618.82 154.67L622.286 129.227L620.45 154.844L626.524 129.907L622.053 155.189L630.67 131.031L623.612 155.701L634.676 132.588L625.11 156.376L638.5 134.56L626.529 157.206L642.099 136.926L627.856 158.181L645.434 139.659L629.074 159.291L648.469 142.731L630.171 160.524L651.17 146.107L631.134 161.867L653.507 149.75L631.954 163.304L655.455 153.62L632.62 164.819L656.993 157.676L633.127 166.397L658.104 161.872L633.468 168.02L658.775 166.162L633.639 169.67L659 170.5L633.639 171.33L658.775 174.838L633.468 172.98L658.104 179.128L633.127 174.603L656.993 183.324L632.62 176.181L655.455 187.38L631.954 177.696L653.507 191.25L631.134 179.133L651.17 194.893L630.171 180.476L648.469 198.269L629.074 181.709L645.434 201.341L627.856 182.819L642.099 204.074L626.529 183.794L638.5 206.44L625.11 184.624L634.676 208.412L623.612 185.299L630.67 209.969L622.053 185.811L626.524 211.093L620.45 186.156L622.286 211.773L618.82 186.33L618 212L617.18 186.33L613.714 211.773L615.55 186.156L609.476 211.093L613.947 185.811L605.33 209.969L612.388 185.299L601.324 208.412L610.89 184.624L597.5 206.44L609.471 183.794L593.901 204.074L608.144 182.819L590.566 201.341L606.926 181.709L587.531 198.269L605.829 180.476L584.83 194.893L604.866 179.133L582.493 191.25L604.046 177.696L580.545 187.38L603.38 176.181L579.007 183.324L602.873 174.603L577.896 179.128L602.532 172.98L577.225 174.838L602.361 171.33L577 170.5L602.361 169.67L577.225 166.162L602.532 168.02L577.896 161.872L602.873 166.397L579.007 157.676L603.38 164.819L580.545 153.62L604.046 163.304L582.493 149.75L604.866 161.867L584.83 146.107L605.829 160.524L587.531 142.731L606.926 159.291L590.566 139.659L608.144 158.181L593.901 136.926L609.471 157.206L597.5 134.56L610.89 156.376L601.324 132.588L612.388 155.701L605.33 131.031L613.947 155.189L609.476 129.907L615.55 154.844L613.714 129.227L617.18 154.67L618 129Z" fill="white"/>
<path d="M241.185 7.68564L215.729 145.451L245.162 9.70774L217.153 146.687L248.631 14.1451L218.375 148.837L251.552 20.9492L219.382 151.878L253.895 30.0455L220.162 155.776L255.634 41.3342L220.708 160.49L256.749 54.6917L221.013 165.966L257.228 69.9716L221.074 172.146L257.067 87.0066L220.89 178.962L256.266 105.61L220.463 186.339L254.835 125.578L219.798 194.195L252.789 146.692L218.902 202.446L250.151 168.72L217.785 211L246.949 191.421L216.46 219.765L243.22 214.547L214.94 228.643L239.002 237.844L213.242 237.537L234.344 261.057L211.386 246.351L229.295 283.931L209.391 254.988L223.912 306.216L207.279 263.352L218.252 327.667L205.073 271.353L212.379 348.051L202.798 278.902L206.356 367.142L200.478 285.918L200.249 384.733L198.14 292.322L194.126 400.63L195.807 298.045L188.053 414.66L193.507 303.025L182.098 426.668L191.264 307.206L176.324 436.523L189.102 310.543L170.796 444.117L187.046 313L165.574 449.367L185.118 314.548L160.715 452.216L183.34 315.173L156.273 452.631L181.729 314.865L152.296 450.609L180.306 313.63L148.827 446.172L179.084 311.48L145.906 439.367L178.077 308.439L143.563 430.271L177.296 304.541L141.824 418.983L176.75 299.827L140.709 405.625L176.445 294.35L140.23 390.345L176.385 288.17L140.392 373.31L176.569 281.355L141.192 354.707L176.996 273.978L142.623 334.739L177.661 266.121L144.669 313.625L178.556 257.871L147.307 291.597L179.673 249.316L150.509 268.895L180.999 240.552L154.239 245.77L182.519 231.674L158.456 222.473L184.216 222.779L163.114 199.26L186.072 213.966L168.163 176.386L188.068 205.329L173.547 154.101L190.179 196.965L179.206 132.649L192.385 188.964L185.08 112.266L194.66 181.415L191.103 93.1744L196.98 174.399L197.209 75.5835L199.319 167.995L203.332 59.6862L201.651 162.271L209.405 45.6566L203.952 157.292L215.361 33.6485L206.195 153.111L221.134 23.7934L208.356 149.773L226.662 16.1992L210.412 147.317L231.884 10.9493L212.34 145.768L236.743 8.101L214.119 145.144L241.185 7.68564Z" fill="white"/>
<path d="M270.237 289.288L198.196 409.445L273.255 292.574L199.098 411.1L274.952 297.944L199.491 413.542L275.309 305.34L199.37 416.743L274.322 314.682L198.738 420.668L272.002 325.865L197.6 425.274L268.374 338.769L195.97 430.512L263.478 353.251L193.865 436.323L257.367 369.153L191.308 442.643L250.109 386.301L188.328 449.405L241.783 404.507L184.956 456.532L232.481 423.571L181.231 463.948L222.304 443.285L177.192 471.571L211.363 463.432L172.885 479.318L199.779 483.792L168.355 487.104L187.679 504.141L163.653 494.843L175.194 524.258L158.831 502.45L162.463 543.92L153.941 509.843L149.624 562.914L149.036 516.94L136.818 581.031L144.171 523.664L124.185 598.071L139.399 529.94L111.864 613.85L134.772 535.701L99.9897 628.193L130.34 540.883L88.6923 640.944L126.153 545.429L78.0955 651.963L122.256 549.289L68.3154 661.129L118.692 552.421L59.4592 668.342L115.5 554.791L51.6238 673.522L112.715 556.373L44.8952 676.614L110.367 557.15L39.347 677.582L108.482 557.112L35.0401 676.417L107.081 556.261L32.0217 673.132L106.179 554.606L30.3247 667.762L105.786 552.164L29.9678 660.365L105.907 548.963L30.955 651.024L106.539 545.038L33.2753 639.841L107.677 540.431L36.9034 626.937L109.307 535.194L41.7995 612.455L111.412 529.383L47.91 596.553L113.969 523.062L55.1679 579.405L116.949 516.301L63.4937 561.199L120.321 509.174L72.7962 542.135L124.046 501.758L82.9735 522.421L128.085 494.134L93.914 502.274L132.392 486.388L105.498 481.914L136.922 478.602L117.598 461.565L141.624 470.863L130.083 441.448L146.446 463.256L142.814 421.785L151.336 455.863L155.653 402.792L156.241 448.766L168.459 384.675L161.106 442.042L181.092 367.634L165.878 435.765L193.413 351.856L170.505 430.005L205.287 337.513L174.937 424.823L216.585 324.762L179.124 420.277L227.182 313.743L183.021 416.417L236.962 304.577L186.585 413.285L245.818 297.364L189.777 410.914L253.653 292.184L192.562 409.333L260.382 289.092L194.91 408.556L265.93 288.123L196.795 408.594L270.237 289.288Z" fill="white"/>
<path d="M471.85 167.504L480.791 262.153L476.192 167.977L482.471 262.654L480.63 170.122L484.177 263.789L485.116 173.916L485.893 265.548L489.601 179.317L487.599 267.91L494.035 186.267L489.276 270.85L498.37 194.689L490.905 274.335L502.558 204.491L492.471 278.328L506.553 215.566L493.954 282.784L510.313 227.791L495.339 287.654L513.795 241.034L496.61 292.886L516.961 255.149L497.754 298.422L519.777 269.981L498.758 304.202L522.211 285.368L499.611 310.161L524.238 301.142L500.304 316.235L525.835 317.129L500.83 322.357L526.984 333.154L501.181 328.461L527.673 349.043L501.355 334.478L527.895 364.62L501.35 340.344L527.646 379.715L501.165 345.994L526.93 394.163L500.804 351.366L525.754 407.805L500.269 356.402L524.132 420.492L499.566 361.045L522.08 432.085L498.704 365.246L519.623 442.457L497.691 368.958L516.785 451.494L496.539 372.14L513.6 459.098L495.261 374.758L510.101 465.184L493.87 376.783L506.326 469.687L492.381 378.193L502.318 472.556L490.812 378.973L498.12 473.762L489.179 379.113L493.778 473.289L487.5 378.612L489.34 471.144L485.793 377.476L484.854 467.35L484.077 375.718L480.369 461.948L482.372 373.355L475.935 454.998L480.695 370.416L471.601 446.576L479.065 366.93L467.412 436.774L477.5 362.938L463.417 425.7L476.016 358.482L459.657 413.475L474.632 353.611L456.175 400.232L473.36 348.379L453.009 386.117L472.216 342.843L450.193 371.285L471.212 337.064L447.759 355.898L470.359 331.105L445.732 340.124L469.666 325.031L444.135 324.137L469.141 318.908L442.986 308.111L468.789 312.805L442.297 292.223L468.615 306.787L442.075 276.646L468.62 300.921L442.324 261.551L468.805 295.271L443.04 247.103L469.167 289.899L444.216 233.461L469.702 284.864L445.839 220.774L470.404 280.221L447.89 209.181L471.267 276.02L450.348 198.809L472.279 272.308L453.185 189.771L473.431 269.125L456.37 182.168L474.709 266.507L459.87 176.081L476.1 264.482L463.644 171.579L477.589 263.072L467.652 168.709L479.158 262.293L471.85 167.504Z" fill="white"/>
<path d="M480.85 256.504L487.581 325.378L485.172 256.748L489.245 325.705L489.552 258.211L490.922 326.494L493.941 260.876L492.593 327.738L498.292 264.715L494.241 329.423L502.556 269.685L495.846 331.529L506.687 275.731L497.392 334.035L510.64 282.788L498.862 336.913L514.371 290.779L500.239 340.131L517.839 299.615L501.508 343.654L521.008 309.199L502.656 347.443L523.84 319.428L503.669 351.457L526.307 330.188L504.537 355.652L528.38 341.363L505.251 359.982L530.038 352.828L505.802 364.399L531.261 364.46L506.184 368.855L532.036 376.13L506.393 373.302L532.356 387.71L506.428 377.69L532.216 399.074L506.286 381.971L531.618 410.097L505.971 386.099L530.568 420.659L505.486 390.029L529.079 430.643L504.835 393.716L527.166 439.941L504.026 397.122L524.85 448.45L503.068 400.208L522.157 456.077L501.972 402.94L519.116 462.739L500.748 405.29L515.76 468.362L499.412 407.23L512.127 472.886L497.977 408.741L508.256 476.259L496.459 409.804L504.189 478.447L494.874 410.409L499.972 479.424L493.241 410.549L495.649 479.179L491.577 410.223L491.269 477.716L489.9 409.433L486.88 475.051L488.228 408.19L482.53 471.213L486.581 406.505L478.266 466.243L484.975 404.398L474.135 460.196L483.429 401.892L470.182 453.139L481.96 399.014L466.451 445.149L480.583 395.797L462.982 436.313L479.314 392.274L459.814 426.728L478.166 388.484L456.981 416.5L477.153 384.47L454.515 405.739L476.284 380.276L452.441 394.565L475.571 375.946L450.784 383.099L475.02 371.529L449.561 371.468L474.638 367.072L448.785 359.798L474.428 362.626L448.466 348.217L474.394 358.238L448.606 336.853L474.535 353.956L449.204 325.83L474.85 349.828L450.253 315.268L475.336 345.899L451.743 305.284L475.987 342.211L453.656 295.987L476.795 338.806L455.972 287.478L477.753 335.72L458.665 279.851L478.85 332.987L461.706 273.189L480.073 330.638L465.061 267.565L481.41 328.697L468.695 263.042L482.845 327.187L472.566 259.668L484.363 326.123L476.632 257.481L485.947 325.518L480.85 256.504Z" fill="white"/>
<path d="M489.85 131.504L498.791 226.153L494.192 131.977L500.471 226.654L498.63 134.122L502.177 227.789L503.116 137.916L503.893 229.548L507.601 143.317L505.599 231.91L512.035 150.267L507.276 234.85L516.37 158.689L508.905 238.335L520.558 168.491L510.471 242.328L524.553 179.566L511.954 246.784L528.313 191.791L513.339 251.654L531.795 205.034L514.61 256.886L534.961 219.149L515.754 262.422L537.777 233.981L516.758 268.202L540.211 249.368L517.611 274.161L542.238 265.142L518.304 280.235L543.835 281.129L518.83 286.357L544.984 297.154L519.181 292.461L545.673 313.043L519.355 298.478L545.895 328.62L519.35 304.344L545.646 343.715L519.165 309.994L544.93 358.163L518.804 315.366L543.754 371.805L518.269 320.402L542.132 384.492L517.566 325.045L540.08 396.085L516.704 329.246L537.623 406.457L515.691 332.958L534.785 415.494L514.539 336.14L531.6 423.098L513.261 338.758L528.101 429.184L511.87 340.783L524.326 433.687L510.381 342.193L520.318 436.556L508.812 342.973L516.12 437.762L507.179 343.113L511.778 437.289L505.5 342.612L507.34 435.144L503.793 341.476L502.854 431.35L502.077 339.718L498.369 425.948L500.372 337.355L493.935 418.998L498.695 334.416L489.601 410.576L497.065 330.93L485.412 400.774L495.5 326.938L481.417 389.7L494.016 322.482L477.657 377.475L492.632 317.611L474.175 364.232L491.36 312.379L471.009 350.117L490.216 306.843L468.193 335.285L489.212 301.064L465.759 319.898L488.359 295.105L463.732 304.124L487.666 289.031L462.135 288.137L487.141 282.908L460.986 272.111L486.789 276.805L460.297 256.223L486.615 270.787L460.075 240.646L486.62 264.921L460.324 225.551L486.805 259.271L461.04 211.103L487.167 253.899L462.216 197.461L487.702 248.864L463.839 184.774L488.404 244.221L465.89 173.181L489.267 240.02L468.348 162.809L490.279 236.308L471.185 153.771L491.431 233.125L474.37 146.168L492.709 230.507L477.87 140.081L494.1 228.482L481.644 135.579L495.589 227.072L485.652 132.709L497.158 226.293L489.85 131.504Z" fill="white"/>
</svg>
